<svg width="32" height="32" viewBox="0 0 32 32" fill="none" xmlns="http://www.w3.org/2000/svg">
  <rect width="32" height="32" rx="8" fill="url(#paint0_linear)"/>
  <path d="M16 6C10.4772 6 6 10.4772 6 16C6 21.5228 10.4772 26 16 26C21.5228 26 26 21.5228 26 16C26 10.4772 21.5228 6 16 6ZM16 8C20.4183 8 24 11.5817 24 16C24 20.4183 20.4183 24 16 24C11.5817 24 8 20.4183 8 16C8 11.5817 11.5817 8 16 8Z" fill="white"/>
  <path d="M16 10C16.5523 10 17 10.4477 17 11V12H19C19.5523 12 20 12.4477 20 13C20 13.5523 19.5523 14 19 14H17V18H19C19.5523 18 20 18.4477 20 19C20 19.5523 19.5523 20 19 20H17V21C17 21.5523 16.5523 22 16 22C15.4477 22 15 21.5523 15 21V20H13C12.4477 20 12 19.5523 12 19C12 18.4477 12.4477 18 13 18H15V14H13C12.4477 14 12 13.5523 12 13C12 12.4477 12.4477 12 13 12H15V11C15 10.4477 15.4477 10 16 10Z" fill="white"/>
  <defs>
    <linearGradient id="paint0_linear" x1="0" y1="0" x2="32" y2="32" gradientUnits="userSpaceOnUse">
      <stop stop-color="#4361EE"/>
      <stop offset="1" stop-color="#7209B7"/>
    </linearGradient>
  </defs>
</svg> 